<svg id="Layer_1" data-name="Layer 1" xmlns="http://www.w3.org/2000/svg" viewBox="0 0 16 16"><defs><style>.cls-1{fill:#1bd741;}.cls-2,.cls-3{fill:#fff;}.cls-3{font-size:3px;font-family:OpenSans-Semibold, Open Sans;font-weight:700;}</style></defs><title>logo</title><rect class="cls-1" width="16" height="16"/><path class="cls-2" d="M3,11.41l.7-2.49a5,5,0,1,1,1.87,1.83Zm2.7-1.57.15.09A4.16,4.16,0,1,0,4.51,8.62l.1.16-.4,1.44Z"/><path class="cls-2" d="M6.6,4.05,6.28,4a.39.39,0,0,0-.28.1,1.48,1.48,0,0,0-.49.75A2.26,2.26,0,0,0,6,6.65,5.27,5.27,0,0,0,8.87,8.71,1.38,1.38,0,0,0,10,8.57a1,1,0,0,0,.46-.67l.05-.24a.17.17,0,0,0-.09-.19L9.36,7a.17.17,0,0,0-.2.05l-.43.56a.12.12,0,0,1-.14,0A3.37,3.37,0,0,1,6.76,6.05a.12.12,0,0,1,0-.14l.41-.48a.17.17,0,0,0,0-.18L6.75,4.15A.17.17,0,0,0,6.6,4.05Z"/><text class="cls-3" transform="translate(0.84 14.66)">Direct WA</text></svg>